<svg xmlns="http://www.w3.org/2000/svg" width="25.449" height="23.64" viewBox="0 0 25.449 23.64">
  <g id="cart" transform="translate(-1 -2)">
    <path id="Path_1" data-name="Path 1" d="M6.664,2H1V4.485H4.8L8.077,20.239h.015v.4H23.458v-.308L26.05,8.326l.4-1.356H7.684L7.01,3.725ZM23.443,9.456H8.2l1.807,8.7H21.564Z" transform="translate(0 0)" fill-rule="evenodd"/>
    <path id="Path_2" data-name="Path 2" d="M10,22a2,2,0,1,0-2-2A2,2,0,0,0,10,22Z" transform="translate(1.565 3.64)"/>
    <path id="Path_3" data-name="Path 3" d="M19,20a2,2,0,1,1-2-2A2,2,0,0,1,19,20Z" transform="translate(3.129 3.64)"/>
  </g>
</svg>
