<svg xmlns="http://www.w3.org/2000/svg" width="129.962" height="24.169" viewBox="0 0 129.962 24.169">
  <g id="Logo" transform="translate(-894.705 -61.984)">
    <path id="Path_9" data-name="Path 9" d="M83.451,2.574h2.583a2.96,2.96,0,0,1,.846.1,1.846,1.846,0,0,1,.567.27,1.244,1.244,0,0,1,.347.378,1.672,1.672,0,0,1,.175.427,2.122,2.122,0,0,1,.063.423q.009.207.009.36,0,.009-.013.162a1.884,1.884,0,0,1-.081.373,2.458,2.458,0,0,1-.212.477,1.752,1.752,0,0,1-.4.477,2.134,2.134,0,0,1-.661.365,2.934,2.934,0,0,1-.986.144H83.757L83.244,9H82.119Zm.5,3.042h1.7a1.515,1.515,0,0,0,.625-.113,1,1,0,0,0,.387-.293,1.113,1.113,0,0,0,.2-.4,1.7,1.7,0,0,0,.059-.437,1.128,1.128,0,0,0-.04-.288.747.747,0,0,0-.153-.288.8.8,0,0,0-.324-.22,1.5,1.5,0,0,0-.553-.085H84.387ZM89.966,5.5h1.647a1.765,1.765,0,0,0,1.112-.3,1.04,1.04,0,0,0,.382-.868.859.859,0,0,0-.095-.428.659.659,0,0,0-.257-.257,1.091,1.091,0,0,0-.369-.121,2.87,2.87,0,0,0-.432-.031H90.381Zm-.54-2.925h2.781q.207,0,.549.036a1.975,1.975,0,0,1,.671.2,1.543,1.543,0,0,1,.567.491,1.531,1.531,0,0,1,.239.913A1.713,1.713,0,0,1,93.846,5.4a1.844,1.844,0,0,1-1.071.554v.018a.916.916,0,0,1,.544.455,1.668,1.668,0,0,1,.14.707A4.154,4.154,0,0,1,93.4,7.8a3.552,3.552,0,0,0-.045.666,1.64,1.64,0,0,0,.022.27A.783.783,0,0,0,93.477,9H92.3a1.1,1.1,0,0,1-.058-.243,2.2,2.2,0,0,1-.014-.252A4.581,4.581,0,0,1,92.28,7.8a4.523,4.523,0,0,0,.054-.7.766.766,0,0,0-.1-.432.583.583,0,0,0-.274-.22,1.265,1.265,0,0,0-.387-.081q-.216-.014-.441-.014H89.786L89.238,9H88.095Zm6.4,3.735a2.043,2.043,0,0,0,.459,1.413,1.66,1.66,0,0,0,1.305.513,1.807,1.807,0,0,0,.977-.261,2.311,2.311,0,0,0,.7-.684,3.125,3.125,0,0,0,.423-.954,4.2,4.2,0,0,0,.139-1.071,2.112,2.112,0,0,0-.437-1.413,1.59,1.59,0,0,0-1.282-.513,1.888,1.888,0,0,0-1,.261,2.274,2.274,0,0,0-.711.684,3.207,3.207,0,0,0-.428.954A4.075,4.075,0,0,0,95.826,6.309ZM94.7,6.345A4.637,4.637,0,0,1,95,4.595a3.569,3.569,0,0,1,.792-1.224A3.179,3.179,0,0,1,96.9,2.655a3.488,3.488,0,0,1,1.246-.234,3.1,3.1,0,0,1,1.152.207,2.516,2.516,0,0,1,.887.581,2.642,2.642,0,0,1,.567.886,3.063,3.063,0,0,1,.2,1.134,4.823,4.823,0,0,1-.288,1.755A3.527,3.527,0,0,1,99.9,8.2a3.056,3.056,0,0,1-1.089.715,3.5,3.5,0,0,1-1.26.234,3.229,3.229,0,0,1-1.224-.216,2.524,2.524,0,0,1-.891-.594,2.557,2.557,0,0,1-.549-.891A3.178,3.178,0,0,1,94.7,6.345Zm7.884,1.737h1.4a2.029,2.029,0,0,0,.851-.166,2.166,2.166,0,0,0,.625-.423,2.435,2.435,0,0,0,.437-.58,3.976,3.976,0,0,0,.279-.635,3.453,3.453,0,0,0,.144-.585,3.158,3.158,0,0,0,.04-.437,2.036,2.036,0,0,0-.369-1.3,1.263,1.263,0,0,0-1.044-.459h-1.4Zm.027-5.508h2.358a2.479,2.479,0,0,1,1.881.67,2.83,2.83,0,0,1,.639,2.021,3.72,3.72,0,0,1-.063.643,4.73,4.73,0,0,1-.189.72,4.328,4.328,0,0,1-.315.7,2.533,2.533,0,0,1-.45.589,5.879,5.879,0,0,1-.558.481,2.673,2.673,0,0,1-.6.338,3.308,3.308,0,0,1-.76.2A7.2,7.2,0,0,1,103.521,9h-2.259Zm6.489,0h1.125L109.4,6.507q-.027.126-.045.257t-.027.266a1.2,1.2,0,0,0,.095.544.9.9,0,0,0,.292.355,1.227,1.227,0,0,0,.441.194,2.427,2.427,0,0,0,.549.058,2.355,2.355,0,0,0,.6-.072,1.262,1.262,0,0,0,.5-.257,1.68,1.68,0,0,0,.391-.5,3.174,3.174,0,0,0,.279-.814l.846-3.96h1.125l-.846,4.032a7,7,0,0,1-.234.846,2.464,2.464,0,0,1-.481.828,2.5,2.5,0,0,1-.878.626,3.485,3.485,0,0,1-1.422.247,3.342,3.342,0,0,1-.909-.122,2.271,2.271,0,0,1-.756-.365,1.785,1.785,0,0,1-.518-.616,1.883,1.883,0,0,1-.194-.877,2.96,2.96,0,0,1,.032-.437q.032-.212.076-.427Zm10.458,2.142a1.341,1.341,0,0,0-.373-1.026,1.513,1.513,0,0,0-1.076-.351,1.888,1.888,0,0,0-1,.261,2.274,2.274,0,0,0-.711.684,3.207,3.207,0,0,0-.428.954,4.075,4.075,0,0,0-.144,1.071,2.043,2.043,0,0,0,.459,1.413,1.66,1.66,0,0,0,1.305.513,1.472,1.472,0,0,0,.729-.167,1.68,1.68,0,0,0,.49-.4,1.966,1.966,0,0,0,.3-.49,3.867,3.867,0,0,0,.148-.414h1.125a3.529,3.529,0,0,1-.4,1.062,2.747,2.747,0,0,1-.644.747,2.563,2.563,0,0,1-.828.441,3.125,3.125,0,0,1-.949.144,3.229,3.229,0,0,1-1.224-.216,2.524,2.524,0,0,1-.891-.594,2.557,2.557,0,0,1-.549-.891,3.178,3.178,0,0,1-.189-1.107,4.637,4.637,0,0,1,.3-1.751,3.569,3.569,0,0,1,.792-1.224,3.179,3.179,0,0,1,1.107-.715,3.488,3.488,0,0,1,1.246-.234,3.4,3.4,0,0,1,1.044.153,2.338,2.338,0,0,1,.815.441,1.881,1.881,0,0,1,.517.72,2.328,2.328,0,0,1,.162.981Zm2.07-2.142h5.292l-.207.972h-2.043L123.537,9h-1.125l1.134-5.454h-2.115Zm6,0h1.125L127.416,9h-1.125Zm2.529,3.735a2.043,2.043,0,0,0,.459,1.413,1.66,1.66,0,0,0,1.3.513,1.807,1.807,0,0,0,.977-.261,2.311,2.311,0,0,0,.7-.684,3.125,3.125,0,0,0,.423-.954,4.2,4.2,0,0,0,.139-1.071,2.112,2.112,0,0,0-.436-1.413,1.59,1.59,0,0,0-1.283-.513,1.888,1.888,0,0,0-1,.261,2.274,2.274,0,0,0-.711.684,3.207,3.207,0,0,0-.427.954A4.075,4.075,0,0,0,130.161,6.309Zm-1.125.036a4.637,4.637,0,0,1,.3-1.751,3.569,3.569,0,0,1,.792-1.224,3.179,3.179,0,0,1,1.107-.715,3.488,3.488,0,0,1,1.246-.234,3.1,3.1,0,0,1,1.152.207,2.516,2.516,0,0,1,.886.581,2.642,2.642,0,0,1,.567.886,3.063,3.063,0,0,1,.2,1.134A4.823,4.823,0,0,1,135,6.984a3.527,3.527,0,0,1-.765,1.219,3.056,3.056,0,0,1-1.089.715,3.5,3.5,0,0,1-1.26.234,3.229,3.229,0,0,1-1.224-.216,2.524,2.524,0,0,1-.891-.594,2.557,2.557,0,0,1-.549-.891A3.178,3.178,0,0,1,129.036,6.345Zm7.893-3.771h1.233l1.971,4.8h.018l.981-4.8h1.125L140.925,9h-1.233l-1.98-4.77h-.018L136.722,9H135.6Zm6.354,4.3a1.164,1.164,0,0,0,.369,1.053,1.8,1.8,0,0,0,1.107.306,2.343,2.343,0,0,0,.481-.054,1.532,1.532,0,0,0,.464-.175,1.123,1.123,0,0,0,.346-.315.8.8,0,0,0,.14-.482.747.747,0,0,0-.131-.45,1.078,1.078,0,0,0-.342-.3,2.388,2.388,0,0,0-.49-.207q-.279-.085-.576-.166-.216-.054-.513-.148a2.316,2.316,0,0,1-.576-.279,1.645,1.645,0,0,1-.473-.481,1.36,1.36,0,0,1-.193-.756,1.97,1.97,0,0,1,.162-.8,1.775,1.775,0,0,1,.468-.635,2.186,2.186,0,0,1,.751-.414,3.2,3.2,0,0,1,1.012-.148,3.964,3.964,0,0,1,.945.108A2.085,2.085,0,0,1,147,2.88a1.626,1.626,0,0,1,.5.635,2.122,2.122,0,0,1,.162.958h-1.08a1.083,1.083,0,0,0-.333-.868,1.525,1.525,0,0,0-.981-.266,2.668,2.668,0,0,0-.324.027,1.367,1.367,0,0,0-.414.126,1.056,1.056,0,0,0-.36.283.773.773,0,0,0-.153.509.655.655,0,0,0,.108.387.919.919,0,0,0,.292.261,1.929,1.929,0,0,0,.428.18q.243.072.513.135.342.09.688.2a2.351,2.351,0,0,1,.63.3,1.472,1.472,0,0,1,.459.509,1.675,1.675,0,0,1,.176.819,2.04,2.04,0,0,1-.144.747,1.8,1.8,0,0,1-.464.666,2.4,2.4,0,0,1-.828.482,3.647,3.647,0,0,1-1.238.184,3.749,3.749,0,0,1-1.026-.13,2.026,2.026,0,0,1-.779-.4,1.734,1.734,0,0,1-.486-.707,2.655,2.655,0,0,1-.148-1.035Z" transform="translate(877 77)" fill="#1c1c1c"/>
    <path id="Path_8" data-name="Path 8" d="M-27.819-2.948V-6.776h1.144a1.335,1.335,0,0,1,1.012.484,2.025,2.025,0,0,1,.44,1.408,2.09,2.09,0,0,1-.44,1.463,1.347,1.347,0,0,1-1.012.473Zm0-6.6V-12.76h.99a1.1,1.1,0,0,1,.968.484,1.981,1.981,0,0,1,.33,1.144,1.893,1.893,0,0,1-.33,1.111,1.105,1.105,0,0,1-.968.473Zm-4.092-6.16V0h6.182a6.174,6.174,0,0,0,2.178-.341A3.713,3.713,0,0,0-22.088-1.3a3.826,3.826,0,0,0,.825-1.474A6.332,6.332,0,0,0-21-4.642a4.621,4.621,0,0,0-.165-1.221,3.579,3.579,0,0,0-.517-1.111,3.024,3.024,0,0,0-.9-.847,2.947,2.947,0,0,0-1.32-.407v-.044a2.875,2.875,0,0,0,1.122-.462,2.826,2.826,0,0,0,.759-.8,3.569,3.569,0,0,0,.44-1.056,5.015,5.015,0,0,0,.143-1.2,3.9,3.9,0,0,0-1.045-2.849,4.368,4.368,0,0,0-3.245-1.067ZM-14.289-12.5-15.411-5.83h2.288L-14.245-12.5Zm2.6-3.212L-7.865,0h-4.356l-.418-2.75H-15.9L-16.313,0H-20.6l3.762-15.708Zm10.626,4.532H2.761a4.927,4.927,0,0,0-1.2-3.685,5.462,5.462,0,0,0-3.883-1.155,5.323,5.323,0,0,0-3.872,1.254A4.9,4.9,0,0,0-7.469-11.11,4.634,4.634,0,0,0-7-8.866,4.228,4.228,0,0,0-5.808-7.48a6.805,6.805,0,0,0,1.551.858q.836.33,1.551.649a4.156,4.156,0,0,1,1.188.77,1.607,1.607,0,0,1,.473,1.221A1.707,1.707,0,0,1-1.386-2.9a1.165,1.165,0,0,1-.979.44,1.254,1.254,0,0,1-.968-.407A2.1,2.1,0,0,1-3.707-4.29v-.374h-3.96v.55a5.341,5.341,0,0,0,.352,2.068A3.274,3.274,0,0,0-6.292-.693a4.046,4.046,0,0,0,1.65.726A10.877,10.877,0,0,0-2.387.242,6.538,6.538,0,0,0,1.749-.891a4.367,4.367,0,0,0,1.43-3.641,4.759,4.759,0,0,0-.495-2.321A4.42,4.42,0,0,0,1.441-8.294,7.172,7.172,0,0,0-.165-9.185q-.858-.341-1.606-.671a4.563,4.563,0,0,1-1.243-.781,1.57,1.57,0,0,1-.5-1.221,1.6,1.6,0,0,1,.308-.957,1.11,1.11,0,0,1,.968-.429.948.948,0,0,1,.88.495,2.359,2.359,0,0,1,.286,1.2Zm5.544-4.532V0H8.569V-15.708Zm12.144,4.774v.88h3.96v-.99a7.126,7.126,0,0,0-.275-2.057,3.9,3.9,0,0,0-.88-1.562,3.952,3.952,0,0,0-1.573-1,6.922,6.922,0,0,0-2.354-.352,7.23,7.23,0,0,0-2.662.429,3.731,3.731,0,0,0-1.738,1.4,6.447,6.447,0,0,0-.935,2.53,22.383,22.383,0,0,0-.275,3.806A25.959,25.959,0,0,0,10.12-4.1a6.539,6.539,0,0,0,.847,2.53,3.4,3.4,0,0,0,1.716,1.4A8.031,8.031,0,0,0,15.5.242,8.8,8.8,0,0,0,17.424.033a3.878,3.878,0,0,0,1.661-.814,4.227,4.227,0,0,0,1.166-1.661,7.1,7.1,0,0,0,.44-2.706V-6.314h-3.96q0,1.122-.055,1.859a5.725,5.725,0,0,1-.187,1.177,1.2,1.2,0,0,1-.374.627.978.978,0,0,1-.616.187,1.076,1.076,0,0,1-.737-.242,1.615,1.615,0,0,1-.418-.858,9.415,9.415,0,0,1-.187-1.661q-.044-1.045-.044-2.629t.044-2.629a9.415,9.415,0,0,1,.187-1.661A1.615,1.615,0,0,1,14.762-13a1.076,1.076,0,0,1,.737-.242.9.9,0,0,1,.858.484A4.27,4.27,0,0,1,16.621-10.934Zm11.66-.242h3.828a4.927,4.927,0,0,0-1.2-3.685,5.462,5.462,0,0,0-3.883-1.155,5.323,5.323,0,0,0-3.872,1.254,4.9,4.9,0,0,0-1.276,3.652,4.634,4.634,0,0,0,.473,2.244A4.228,4.228,0,0,0,23.54-7.48a6.805,6.805,0,0,0,1.551.858q.836.33,1.551.649a4.156,4.156,0,0,1,1.188.77A1.607,1.607,0,0,1,28.3-3.982,1.707,1.707,0,0,1,27.962-2.9a1.165,1.165,0,0,1-.979.44,1.254,1.254,0,0,1-.968-.407,2.1,2.1,0,0,1-.374-1.419v-.374h-3.96v.55a5.341,5.341,0,0,0,.352,2.068A3.274,3.274,0,0,0,23.056-.693a4.046,4.046,0,0,0,1.65.726,10.877,10.877,0,0,0,2.255.209A6.538,6.538,0,0,0,31.1-.891a4.367,4.367,0,0,0,1.43-3.641,4.759,4.759,0,0,0-.5-2.321,4.42,4.42,0,0,0-1.243-1.441,7.172,7.172,0,0,0-1.606-.891q-.858-.341-1.606-.671a4.563,4.563,0,0,1-1.243-.781,1.57,1.57,0,0,1-.5-1.221,1.6,1.6,0,0,1,.308-.957,1.11,1.11,0,0,1,.968-.429.948.948,0,0,1,.88.495,2.359,2.359,0,0,1,.286,1.2Z" transform="translate(991 78)" fill="#6c6c6c"/>
    <path id="Path_7" data-name="Path 7" d="M5.8,18.052V14.224H6.941a1.335,1.335,0,0,1,1.012.484,2.025,2.025,0,0,1,.44,1.408,2.09,2.09,0,0,1-.44,1.463,1.347,1.347,0,0,1-1.012.473Zm0-6.6V8.24h.99a1.1,1.1,0,0,1,.968.484,1.981,1.981,0,0,1,.33,1.144,1.893,1.893,0,0,1-.33,1.111,1.105,1.105,0,0,1-.968.473ZM1.7,5.292V21H7.887a6.174,6.174,0,0,0,2.178-.341,3.713,3.713,0,0,0,1.463-.957,3.826,3.826,0,0,0,.825-1.474,6.332,6.332,0,0,0,.264-1.87,4.621,4.621,0,0,0-.165-1.221,3.579,3.579,0,0,0-.517-1.111,3.024,3.024,0,0,0-.9-.847,2.947,2.947,0,0,0-1.32-.407v-.044a2.875,2.875,0,0,0,1.122-.462,2.826,2.826,0,0,0,.759-.8,3.569,3.569,0,0,0,.44-1.056,5.015,5.015,0,0,0,.143-1.2,3.9,3.9,0,0,0-1.045-2.849A4.368,4.368,0,0,0,7.887,5.292Zm16.258,7.854q0-1.584.044-2.629a9.415,9.415,0,0,1,.187-1.661A1.615,1.615,0,0,1,18.612,8a1.243,1.243,0,0,1,1.474,0,1.615,1.615,0,0,1,.418.858,9.415,9.415,0,0,1,.187,1.661q.044,1.045.044,2.629t-.044,2.629a9.415,9.415,0,0,1-.187,1.661,1.615,1.615,0,0,1-.418.858,1.243,1.243,0,0,1-1.474,0,1.615,1.615,0,0,1-.418-.858,9.415,9.415,0,0,1-.187-1.661Q17.963,14.73,17.963,13.146Zm-4.224,0a21.049,21.049,0,0,0,.286,3.751,6.657,6.657,0,0,0,.946,2.53,3.643,3.643,0,0,0,1.738,1.4,7.33,7.33,0,0,0,2.64.418,7.33,7.33,0,0,0,2.64-.418,3.643,3.643,0,0,0,1.738-1.4,6.657,6.657,0,0,0,.946-2.53,21.049,21.049,0,0,0,.286-3.751A21.049,21.049,0,0,0,24.673,9.4a6.657,6.657,0,0,0-.946-2.53,3.846,3.846,0,0,0-1.738-1.43,6.846,6.846,0,0,0-2.64-.451,6.846,6.846,0,0,0-2.64.451,3.846,3.846,0,0,0-1.738,1.43,6.657,6.657,0,0,0-.946,2.53A21.049,21.049,0,0,0,13.739,13.146ZM26.433,5.292V21h3.828V11.3h.044L33.033,21h4.488V5.292H33.693v9.68h-.044l-2.64-9.68Zm12.87,0V21h4.092V5.292Zm7.942,3.476V21h4.092V8.768h3.08V5.292H44.209V8.768ZM59.257,8.5,58.135,15.17h2.288L59.3,8.5Zm2.6-3.212L65.681,21H61.325l-.418-2.75H57.651L57.233,21h-4.29L56.7,5.292Z" transform="translate(893 57)" fill="#1c1c1c"/>
  </g>
</svg>
