<svg xmlns="http://www.w3.org/2000/svg" width="128.945" height="24.157" viewBox="0 0 128.945 24.157">
  <g id="Group_3" data-name="Group 3" transform="translate(-894.582 -61.984)">
    <g id="Logo">
      <g id="Group_2" data-name="Group 2">
        <path id="Path_8" data-name="Path 8" d="M-27.819-2.948V-6.776h1.144a1.335,1.335,0,0,1,1.012.484,2.025,2.025,0,0,1,.44,1.408,2.09,2.09,0,0,1-.44,1.463,1.347,1.347,0,0,1-1.012.473Zm0-6.6V-12.76h.99a1.1,1.1,0,0,1,.968.484,1.981,1.981,0,0,1,.33,1.144,1.893,1.893,0,0,1-.33,1.111,1.105,1.105,0,0,1-.968.473Zm-4.092-6.16V0h6.182a6.174,6.174,0,0,0,2.178-.341A3.713,3.713,0,0,0-22.088-1.3a3.826,3.826,0,0,0,.825-1.474A6.332,6.332,0,0,0-21-4.642a4.621,4.621,0,0,0-.165-1.221,3.579,3.579,0,0,0-.517-1.111,3.024,3.024,0,0,0-.9-.847,2.947,2.947,0,0,0-1.32-.407v-.044a2.875,2.875,0,0,0,1.122-.462,2.826,2.826,0,0,0,.759-.8,3.569,3.569,0,0,0,.44-1.056,5.015,5.015,0,0,0,.143-1.2,3.9,3.9,0,0,0-1.045-2.849,4.368,4.368,0,0,0-3.245-1.067ZM-14.289-12.5-15.411-5.83h2.288L-14.245-12.5Zm2.6-3.212L-7.865,0h-4.356l-.418-2.75H-15.9L-16.313,0H-20.6l3.762-15.708Zm10.626,4.532H2.761a4.927,4.927,0,0,0-1.2-3.685,5.462,5.462,0,0,0-3.883-1.155,5.323,5.323,0,0,0-3.872,1.254A4.9,4.9,0,0,0-7.469-11.11,4.634,4.634,0,0,0-7-8.866,4.228,4.228,0,0,0-5.808-7.48a6.805,6.805,0,0,0,1.551.858q.836.33,1.551.649a4.156,4.156,0,0,1,1.188.77,1.607,1.607,0,0,1,.473,1.221A1.707,1.707,0,0,1-1.386-2.9a1.165,1.165,0,0,1-.979.44,1.254,1.254,0,0,1-.968-.407A2.1,2.1,0,0,1-3.707-4.29v-.374h-3.96v.55a5.341,5.341,0,0,0,.352,2.068A3.274,3.274,0,0,0-6.292-.693a4.046,4.046,0,0,0,1.65.726A10.877,10.877,0,0,0-2.387.242,6.538,6.538,0,0,0,1.749-.891a4.367,4.367,0,0,0,1.43-3.641,4.759,4.759,0,0,0-.495-2.321A4.42,4.42,0,0,0,1.441-8.294,7.172,7.172,0,0,0-.165-9.185q-.858-.341-1.606-.671a4.563,4.563,0,0,1-1.243-.781,1.57,1.57,0,0,1-.5-1.221,1.6,1.6,0,0,1,.308-.957,1.11,1.11,0,0,1,.968-.429.948.948,0,0,1,.88.495,2.359,2.359,0,0,1,.286,1.2Zm5.544-4.532V0H8.569V-15.708Zm12.144,4.774v.88h3.96v-.99a7.126,7.126,0,0,0-.275-2.057,3.9,3.9,0,0,0-.88-1.562,3.952,3.952,0,0,0-1.573-1,6.922,6.922,0,0,0-2.354-.352,7.23,7.23,0,0,0-2.662.429,3.731,3.731,0,0,0-1.738,1.4,6.447,6.447,0,0,0-.935,2.53,22.383,22.383,0,0,0-.275,3.806A25.959,25.959,0,0,0,10.12-4.1a6.539,6.539,0,0,0,.847,2.53,3.4,3.4,0,0,0,1.716,1.4A8.031,8.031,0,0,0,15.5.242,8.8,8.8,0,0,0,17.424.033a3.878,3.878,0,0,0,1.661-.814,4.227,4.227,0,0,0,1.166-1.661,7.1,7.1,0,0,0,.44-2.706V-6.314h-3.96q0,1.122-.055,1.859a5.725,5.725,0,0,1-.187,1.177,1.2,1.2,0,0,1-.374.627.978.978,0,0,1-.616.187,1.076,1.076,0,0,1-.737-.242,1.615,1.615,0,0,1-.418-.858,9.415,9.415,0,0,1-.187-1.661q-.044-1.045-.044-2.629t.044-2.629a9.415,9.415,0,0,1,.187-1.661A1.615,1.615,0,0,1,14.762-13a1.076,1.076,0,0,1,.737-.242.9.9,0,0,1,.858.484A4.27,4.27,0,0,1,16.621-10.934Zm11.66-.242h3.828a4.927,4.927,0,0,0-1.2-3.685,5.462,5.462,0,0,0-3.883-1.155,5.323,5.323,0,0,0-3.872,1.254,4.9,4.9,0,0,0-1.276,3.652,4.634,4.634,0,0,0,.473,2.244A4.228,4.228,0,0,0,23.54-7.48a6.805,6.805,0,0,0,1.551.858q.836.33,1.551.649a4.156,4.156,0,0,1,1.188.77A1.607,1.607,0,0,1,28.3-3.982,1.707,1.707,0,0,1,27.962-2.9a1.165,1.165,0,0,1-.979.44,1.254,1.254,0,0,1-.968-.407,2.1,2.1,0,0,1-.374-1.419v-.374h-3.96v.55a5.341,5.341,0,0,0,.352,2.068A3.274,3.274,0,0,0,23.056-.693a4.046,4.046,0,0,0,1.65.726,10.877,10.877,0,0,0,2.255.209A6.538,6.538,0,0,0,31.1-.891a4.367,4.367,0,0,0,1.43-3.641,4.759,4.759,0,0,0-.5-2.321,4.42,4.42,0,0,0-1.243-1.441,7.172,7.172,0,0,0-1.606-.891q-.858-.341-1.606-.671a4.563,4.563,0,0,1-1.243-.781,1.57,1.57,0,0,1-.5-1.221,1.6,1.6,0,0,1,.308-.957,1.11,1.11,0,0,1,.968-.429.948.948,0,0,1,.88.495,2.359,2.359,0,0,1,.286,1.2Z" transform="translate(991 78)" fill="#6c6c6c"/>
        <path id="Path_7" data-name="Path 7" d="M5.8,18.052V14.224H6.941a1.335,1.335,0,0,1,1.012.484,2.025,2.025,0,0,1,.44,1.408,2.09,2.09,0,0,1-.44,1.463,1.347,1.347,0,0,1-1.012.473Zm0-6.6V8.24h.99a1.1,1.1,0,0,1,.968.484,1.981,1.981,0,0,1,.33,1.144,1.893,1.893,0,0,1-.33,1.111,1.105,1.105,0,0,1-.968.473ZM1.7,5.292V21H7.887a6.174,6.174,0,0,0,2.178-.341,3.713,3.713,0,0,0,1.463-.957,3.826,3.826,0,0,0,.825-1.474,6.332,6.332,0,0,0,.264-1.87,4.621,4.621,0,0,0-.165-1.221,3.579,3.579,0,0,0-.517-1.111,3.024,3.024,0,0,0-.9-.847,2.947,2.947,0,0,0-1.32-.407v-.044a2.875,2.875,0,0,0,1.122-.462,2.826,2.826,0,0,0,.759-.8,3.569,3.569,0,0,0,.44-1.056,5.015,5.015,0,0,0,.143-1.2,3.9,3.9,0,0,0-1.045-2.849A4.368,4.368,0,0,0,7.887,5.292Zm16.258,7.854q0-1.584.044-2.629a9.415,9.415,0,0,1,.187-1.661A1.615,1.615,0,0,1,18.612,8a1.243,1.243,0,0,1,1.474,0,1.615,1.615,0,0,1,.418.858,9.415,9.415,0,0,1,.187,1.661q.044,1.045.044,2.629t-.044,2.629a9.415,9.415,0,0,1-.187,1.661,1.615,1.615,0,0,1-.418.858,1.243,1.243,0,0,1-1.474,0,1.615,1.615,0,0,1-.418-.858,9.415,9.415,0,0,1-.187-1.661Q17.963,14.73,17.963,13.146Zm-4.224,0a21.049,21.049,0,0,0,.286,3.751,6.657,6.657,0,0,0,.946,2.53,3.643,3.643,0,0,0,1.738,1.4,7.33,7.33,0,0,0,2.64.418,7.33,7.33,0,0,0,2.64-.418,3.643,3.643,0,0,0,1.738-1.4,6.657,6.657,0,0,0,.946-2.53,21.049,21.049,0,0,0,.286-3.751A21.049,21.049,0,0,0,24.673,9.4a6.657,6.657,0,0,0-.946-2.53,3.846,3.846,0,0,0-1.738-1.43,6.846,6.846,0,0,0-2.64-.451,6.846,6.846,0,0,0-2.64.451,3.846,3.846,0,0,0-1.738,1.43,6.657,6.657,0,0,0-.946,2.53A21.049,21.049,0,0,0,13.739,13.146ZM26.433,5.292V21h3.828V11.3h.044L33.033,21h4.488V5.292H33.693v9.68h-.044l-2.64-9.68Zm12.87,0V21h4.092V5.292Zm7.942,3.476V21h4.092V8.768h3.08V5.292H44.209V8.768ZM59.257,8.5,58.135,15.17h2.288L59.3,8.5Zm2.6-3.212L65.681,21H61.325l-.418-2.75H57.651L57.233,21h-4.29L56.7,5.292Z" transform="translate(893 57)" fill="#1c1c1c"/>
      </g>
      <g id="Group_1" data-name="Group 1" transform="translate(16.705)">
        <path id="Path_9" data-name="Path 9" d="M1.81,2.074H4.192a2.73,2.73,0,0,1,.78.1,1.7,1.7,0,0,1,.523.249,1.147,1.147,0,0,1,.32.349,1.542,1.542,0,0,1,.162.394,1.957,1.957,0,0,1,.058.39q.008.191.008.332,0,.008-.012.149a1.737,1.737,0,0,1-.075.344,2.266,2.266,0,0,1-.2.44,1.616,1.616,0,0,1-.374.44,1.968,1.968,0,0,1-.61.336,2.706,2.706,0,0,1-.909.133H2.092L1.619,8H.582Zm.457,2.805H3.835a1.4,1.4,0,0,0,.577-.1.924.924,0,0,0,.357-.27,1.027,1.027,0,0,0,.183-.369,1.565,1.565,0,0,0,.054-.4,1.04,1.04,0,0,0-.037-.266A.689.689,0,0,0,4.827,3.2a.741.741,0,0,0-.3-.2,1.383,1.383,0,0,0-.51-.079H2.673Zm5.553-.108H9.338a1.628,1.628,0,0,0,1.025-.278.959.959,0,0,0,.353-.8.792.792,0,0,0-.087-.394.608.608,0,0,0-.237-.237,1.006,1.006,0,0,0-.34-.112,2.646,2.646,0,0,0-.4-.029H8.2Zm-.5-2.7H9.886q.191,0,.506.033a1.822,1.822,0,0,1,.618.183,1.423,1.423,0,0,1,.523.452,1.412,1.412,0,0,1,.22.842,1.58,1.58,0,0,1-.357,1.1,1.7,1.7,0,0,1-.988.51v.017a.845.845,0,0,1,.5.419,1.538,1.538,0,0,1,.129.652,3.831,3.831,0,0,1-.05.614,3.276,3.276,0,0,0-.042.614,1.512,1.512,0,0,0,.021.249A.722.722,0,0,0,11.056,8H9.969a1.012,1.012,0,0,1-.054-.224A2.033,2.033,0,0,1,9.9,7.543a4.225,4.225,0,0,1,.05-.652A4.171,4.171,0,0,0,10,6.249a.707.707,0,0,0-.1-.4.537.537,0,0,0-.253-.2A1.166,1.166,0,0,0,9.3,5.572Q9.1,5.56,8.89,5.56H7.653L7.147,8H6.093Zm5.9,3.444a1.884,1.884,0,0,0,.423,1.3,1.531,1.531,0,0,0,1.2.473,1.666,1.666,0,0,0,.9-.241,2.131,2.131,0,0,0,.647-.631,2.882,2.882,0,0,0,.39-.88,3.872,3.872,0,0,0,.129-.988,1.948,1.948,0,0,0-.4-1.3,1.467,1.467,0,0,0-1.183-.473,1.741,1.741,0,0,0-.925.241,2.1,2.1,0,0,0-.656.631,2.958,2.958,0,0,0-.394.88A3.758,3.758,0,0,0,13.223,5.518Zm-1.037.033a4.276,4.276,0,0,1,.278-1.614,3.291,3.291,0,0,1,.73-1.129,2.931,2.931,0,0,1,1.021-.66,3.217,3.217,0,0,1,1.15-.216,2.858,2.858,0,0,1,1.062.191,2.32,2.32,0,0,1,.818.535,2.437,2.437,0,0,1,.523.818,2.825,2.825,0,0,1,.187,1.046,4.448,4.448,0,0,1-.266,1.619,3.253,3.253,0,0,1-.705,1.125,2.819,2.819,0,0,1-1,.66,3.228,3.228,0,0,1-1.162.216,2.978,2.978,0,0,1-1.129-.2,2.328,2.328,0,0,1-.822-.548,2.358,2.358,0,0,1-.506-.822A2.93,2.93,0,0,1,12.185,5.552Zm7.271,1.6h1.295A1.872,1.872,0,0,0,21.535,7a2,2,0,0,0,.577-.39,2.246,2.246,0,0,0,.4-.535,3.667,3.667,0,0,0,.257-.585,3.184,3.184,0,0,0,.133-.54,2.912,2.912,0,0,0,.037-.4,1.878,1.878,0,0,0-.34-1.2,1.165,1.165,0,0,0-.963-.423H20.344Zm.025-5.08h2.175a2.286,2.286,0,0,1,1.735.618,2.61,2.61,0,0,1,.589,1.863,3.43,3.43,0,0,1-.058.593,4.362,4.362,0,0,1-.174.664,3.991,3.991,0,0,1-.291.647A2.336,2.336,0,0,1,23.041,7a5.421,5.421,0,0,1-.515.444,2.465,2.465,0,0,1-.556.311,3.05,3.05,0,0,1-.7.183,6.641,6.641,0,0,1-.95.058H18.236Zm5.984,0H26.5L25.739,5.7q-.025.116-.042.237t-.025.245a1.1,1.1,0,0,0,.087.5.826.826,0,0,0,.27.328,1.132,1.132,0,0,0,.407.178,2.238,2.238,0,0,0,.506.054,2.171,2.171,0,0,0,.552-.066,1.163,1.163,0,0,0,.457-.237,1.549,1.549,0,0,0,.361-.465,2.927,2.927,0,0,0,.257-.751l.78-3.652h1.038l-.78,3.718a6.455,6.455,0,0,1-.216.78,2.273,2.273,0,0,1-.444.764,2.308,2.308,0,0,1-.809.577,3.214,3.214,0,0,1-1.311.228,3.082,3.082,0,0,1-.838-.112,2.094,2.094,0,0,1-.7-.336,1.646,1.646,0,0,1-.477-.569,1.737,1.737,0,0,1-.178-.809,2.73,2.73,0,0,1,.029-.4q.029-.2.071-.394ZM35.11,4.049a1.237,1.237,0,0,0-.344-.946,1.4,1.4,0,0,0-.992-.324,1.741,1.741,0,0,0-.925.241,2.1,2.1,0,0,0-.656.631,2.958,2.958,0,0,0-.394.88,3.758,3.758,0,0,0-.133.988,1.884,1.884,0,0,0,.423,1.3,1.531,1.531,0,0,0,1.2.473,1.357,1.357,0,0,0,.672-.154,1.55,1.55,0,0,0,.452-.374,1.813,1.813,0,0,0,.274-.452,3.567,3.567,0,0,0,.137-.382h1.037a3.254,3.254,0,0,1-.374.979A2.533,2.533,0,0,1,34.9,7.6a2.364,2.364,0,0,1-.764.407,2.882,2.882,0,0,1-.876.133,2.978,2.978,0,0,1-1.129-.2,2.328,2.328,0,0,1-.822-.548,2.358,2.358,0,0,1-.506-.822,2.93,2.93,0,0,1-.174-1.021,4.276,4.276,0,0,1,.278-1.614,3.291,3.291,0,0,1,.73-1.129,2.931,2.931,0,0,1,1.021-.66,3.217,3.217,0,0,1,1.15-.216,3.138,3.138,0,0,1,.963.141,2.156,2.156,0,0,1,.751.407A1.735,1.735,0,0,1,36,3.145a2.147,2.147,0,0,1,.149.9Zm1.909-1.975H41.9l-.191.9H39.824L38.778,8H37.741l1.046-5.03H36.836Zm5.536,0h1.037L42.356,8H41.318Zm2.332,3.444a1.884,1.884,0,0,0,.423,1.3,1.531,1.531,0,0,0,1.2.473,1.666,1.666,0,0,0,.9-.241,2.131,2.131,0,0,0,.647-.631,2.882,2.882,0,0,0,.39-.88,3.872,3.872,0,0,0,.129-.988,1.948,1.948,0,0,0-.4-1.3A1.467,1.467,0,0,0,47,2.779a1.741,1.741,0,0,0-.925.241,2.1,2.1,0,0,0-.656.631,2.958,2.958,0,0,0-.394.88A3.758,3.758,0,0,0,44.887,5.518Zm-1.037.033a4.276,4.276,0,0,1,.278-1.614,3.291,3.291,0,0,1,.73-1.129,2.931,2.931,0,0,1,1.021-.66,3.217,3.217,0,0,1,1.15-.216,2.858,2.858,0,0,1,1.062.191,2.321,2.321,0,0,1,.818.535,2.437,2.437,0,0,1,.523.818,2.825,2.825,0,0,1,.187,1.046,4.448,4.448,0,0,1-.266,1.619,3.253,3.253,0,0,1-.706,1.125,2.819,2.819,0,0,1-1,.66,3.228,3.228,0,0,1-1.162.216,2.978,2.978,0,0,1-1.129-.2,2.328,2.328,0,0,1-.822-.548,2.358,2.358,0,0,1-.506-.822A2.93,2.93,0,0,1,43.85,5.552Zm7.279-3.478h1.137L54.083,6.5H54.1L55,2.074h1.037L54.814,8H53.677L51.851,3.6h-.017l-.9,4.4H49.9Zm5.86,3.967a1.073,1.073,0,0,0,.34.971,1.657,1.657,0,0,0,1.021.282,2.161,2.161,0,0,0,.444-.05,1.413,1.413,0,0,0,.427-.162,1.036,1.036,0,0,0,.32-.291.74.74,0,0,0,.129-.444.689.689,0,0,0-.12-.415.994.994,0,0,0-.315-.278,2.2,2.2,0,0,0-.452-.191q-.257-.079-.531-.154-.2-.05-.473-.137a2.136,2.136,0,0,1-.531-.257,1.517,1.517,0,0,1-.436-.444,1.254,1.254,0,0,1-.178-.7,1.817,1.817,0,0,1,.149-.739,1.637,1.637,0,0,1,.432-.585,2.016,2.016,0,0,1,.693-.382,2.947,2.947,0,0,1,.934-.137,3.655,3.655,0,0,1,.872.1,1.923,1.923,0,0,1,.705.324,1.5,1.5,0,0,1,.465.585,1.957,1.957,0,0,1,.149.884h-1a1,1,0,0,0-.307-.8,1.407,1.407,0,0,0-.9-.245,2.46,2.46,0,0,0-.3.025,1.261,1.261,0,0,0-.382.116.974.974,0,0,0-.332.261.713.713,0,0,0-.141.469.6.6,0,0,0,.1.357.847.847,0,0,0,.27.241,1.779,1.779,0,0,0,.394.166q.224.066.473.124.315.083.635.183A2.168,2.168,0,0,1,60.122,5a1.358,1.358,0,0,1,.423.469,1.544,1.544,0,0,1,.162.755,1.881,1.881,0,0,1-.133.689,1.66,1.66,0,0,1-.427.614,2.216,2.216,0,0,1-.764.444,3.363,3.363,0,0,1-1.141.17,3.457,3.457,0,0,1-.946-.12,1.868,1.868,0,0,1-.718-.373A1.6,1.6,0,0,1,56.129,7a2.449,2.449,0,0,1-.137-.955Zm7.843-3.967H66.26l.647,4.515h.017L69.5,2.074h1.469L69.746,8h-1l1.029-4.748h-.017L67.081,8h-.813l-.747-4.748H65.5L64.6,8h-1Zm7.362,0h1.037L72.468,5.7q-.025.116-.041.237t-.025.245a1.1,1.1,0,0,0,.087.5.826.826,0,0,0,.27.328,1.132,1.132,0,0,0,.407.178,2.238,2.238,0,0,0,.506.054,2.172,2.172,0,0,0,.552-.066,1.163,1.163,0,0,0,.456-.237,1.549,1.549,0,0,0,.361-.465,2.927,2.927,0,0,0,.257-.751l.78-3.652h1.037l-.78,3.718a6.457,6.457,0,0,1-.216.78,2.273,2.273,0,0,1-.444.764,2.308,2.308,0,0,1-.809.577,3.214,3.214,0,0,1-1.311.228,3.082,3.082,0,0,1-.838-.112,2.094,2.094,0,0,1-.7-.336,1.646,1.646,0,0,1-.477-.569,1.737,1.737,0,0,1-.178-.809,2.729,2.729,0,0,1,.029-.4q.029-.2.071-.394ZM78.2,6.041a1.073,1.073,0,0,0,.34.971,1.657,1.657,0,0,0,1.021.282,2.161,2.161,0,0,0,.444-.05,1.413,1.413,0,0,0,.427-.162,1.036,1.036,0,0,0,.32-.291.74.74,0,0,0,.129-.444.689.689,0,0,0-.12-.415.994.994,0,0,0-.315-.278A2.2,2.2,0,0,0,80,5.464q-.257-.079-.531-.154-.2-.05-.473-.137a2.135,2.135,0,0,1-.531-.257,1.517,1.517,0,0,1-.436-.444,1.254,1.254,0,0,1-.178-.7A1.817,1.817,0,0,1,78,3.037a1.637,1.637,0,0,1,.432-.585,2.016,2.016,0,0,1,.693-.382,2.947,2.947,0,0,1,.934-.137,3.655,3.655,0,0,1,.871.1,1.923,1.923,0,0,1,.705.324,1.5,1.5,0,0,1,.465.585,1.957,1.957,0,0,1,.149.884h-1a1,1,0,0,0-.307-.8,1.407,1.407,0,0,0-.9-.245,2.46,2.46,0,0,0-.3.025,1.261,1.261,0,0,0-.382.116.974.974,0,0,0-.332.261.713.713,0,0,0-.141.469.6.6,0,0,0,.1.357.847.847,0,0,0,.27.241,1.779,1.779,0,0,0,.394.166q.224.066.473.124.315.083.635.183A2.168,2.168,0,0,1,81.337,5a1.358,1.358,0,0,1,.423.469,1.544,1.544,0,0,1,.162.755,1.881,1.881,0,0,1-.133.689,1.66,1.66,0,0,1-.427.614,2.216,2.216,0,0,1-.764.444,3.363,3.363,0,0,1-1.141.17,3.457,3.457,0,0,1-.946-.12,1.868,1.868,0,0,1-.718-.373A1.6,1.6,0,0,1,77.344,7a2.449,2.449,0,0,1-.137-.955Zm5.544-3.967h1.038L83.549,8H82.511Zm5.777,1.975A1.237,1.237,0,0,0,89.18,3.1a1.4,1.4,0,0,0-.992-.324,1.741,1.741,0,0,0-.925.241,2.1,2.1,0,0,0-.656.631,2.958,2.958,0,0,0-.394.88,3.758,3.758,0,0,0-.133.988,1.884,1.884,0,0,0,.423,1.3,1.531,1.531,0,0,0,1.2.473,1.357,1.357,0,0,0,.672-.154,1.55,1.55,0,0,0,.452-.374,1.814,1.814,0,0,0,.274-.452,3.565,3.565,0,0,0,.137-.382H90.28a3.254,3.254,0,0,1-.373.979,2.533,2.533,0,0,1-.593.689,2.364,2.364,0,0,1-.764.407,2.882,2.882,0,0,1-.876.133,2.978,2.978,0,0,1-1.129-.2,2.328,2.328,0,0,1-.822-.548,2.359,2.359,0,0,1-.506-.822,2.93,2.93,0,0,1-.174-1.021,4.277,4.277,0,0,1,.278-1.614,3.291,3.291,0,0,1,.73-1.129,2.931,2.931,0,0,1,1.021-.66,3.217,3.217,0,0,1,1.15-.216,3.138,3.138,0,0,1,.963.141,2.156,2.156,0,0,1,.751.407,1.735,1.735,0,0,1,.477.664,2.147,2.147,0,0,1,.149.9Zm4.822-1.975h1.038L94.339,7.1h2.988l-.183.9H93.118Zm4.772,0h1.038L98.92,8H97.883Zm2.258,5.08h1.486q.133,0,.373-.008a1.827,1.827,0,0,0,.49-.087,1.106,1.106,0,0,0,.444-.27.858.858,0,0,0,.228-.556,1.754,1.754,0,0,0,0-.266.621.621,0,0,0-.116-.307.794.794,0,0,0-.324-.253,1.484,1.484,0,0,0-.618-.1h-1.569Zm.539-2.6h1.552a1.582,1.582,0,0,0,.614-.1.957.957,0,0,0,.357-.245.762.762,0,0,0,.166-.307,1.146,1.146,0,0,0,.042-.278,1.061,1.061,0,0,0-.025-.212.542.542,0,0,0-.116-.232A.674.674,0,0,0,104.232,3a1.348,1.348,0,0,0-.5-.075h-1.477Zm-.523-2.482h2.556a2.28,2.28,0,0,1,.934.158,1.445,1.445,0,0,1,.523.373,1.047,1.047,0,0,1,.228.456,2.04,2.04,0,0,1,.05.4,1.578,1.578,0,0,1-.079.5,1.412,1.412,0,0,1-.228.427,1.275,1.275,0,0,1-.361.315,1.335,1.335,0,0,1-.469.166v.017a1.185,1.185,0,0,1,.888,1.245,2.056,2.056,0,0,1-.091.552,1.688,1.688,0,0,1-.336.614,1.924,1.924,0,0,1-.681.5,2.649,2.649,0,0,1-1.116.2h-3.046Zm6.341,2.7h1.519a1.628,1.628,0,0,0,1.025-.278.959.959,0,0,0,.353-.8.792.792,0,0,0-.087-.394.608.608,0,0,0-.237-.237,1.006,1.006,0,0,0-.34-.112,2.647,2.647,0,0,0-.4-.029h-1.452Zm-.5-2.7H109.8q.191,0,.506.033a1.822,1.822,0,0,1,.618.183,1.423,1.423,0,0,1,.523.452,1.412,1.412,0,0,1,.22.842,1.58,1.58,0,0,1-.357,1.1,1.7,1.7,0,0,1-.988.51v.017a.845.845,0,0,1,.5.419,1.538,1.538,0,0,1,.129.652,3.832,3.832,0,0,1-.05.614,3.276,3.276,0,0,0-.042.614,1.512,1.512,0,0,0,.021.249.722.722,0,0,0,.087.241h-1.087a1.012,1.012,0,0,1-.054-.224,2.032,2.032,0,0,1-.012-.232,4.226,4.226,0,0,1,.05-.652,4.171,4.171,0,0,0,.05-.643.707.707,0,0,0-.1-.4.537.537,0,0,0-.253-.2,1.166,1.166,0,0,0-.357-.075q-.2-.012-.407-.012h-1.237L107.062,8h-1.054Zm7.661,0h1.1L117.022,8h-1.054l-.241-1.569H113.37L112.457,8h-1.112Zm.357,1.046h-.017L113.81,5.643h1.809Zm4.009,1.652h1.519a1.628,1.628,0,0,0,1.025-.278.959.959,0,0,0,.353-.8.792.792,0,0,0-.087-.394.608.608,0,0,0-.237-.237,1.006,1.006,0,0,0-.34-.112,2.647,2.647,0,0,0-.4-.029h-1.452Zm-.5-2.7h2.565q.191,0,.506.033a1.822,1.822,0,0,1,.618.183,1.423,1.423,0,0,1,.523.452,1.412,1.412,0,0,1,.22.842,1.58,1.58,0,0,1-.357,1.1,1.7,1.7,0,0,1-.988.51v.017a.845.845,0,0,1,.5.419,1.538,1.538,0,0,1,.129.652,3.832,3.832,0,0,1-.05.614,3.276,3.276,0,0,0-.042.614,1.512,1.512,0,0,0,.021.249A.722.722,0,0,0,122.5,8h-1.087a1.012,1.012,0,0,1-.054-.224,2.032,2.032,0,0,1-.012-.232,4.226,4.226,0,0,1,.05-.652,4.171,4.171,0,0,0,.05-.643.707.707,0,0,0-.1-.4.537.537,0,0,0-.253-.2,1.166,1.166,0,0,0-.357-.075q-.2-.012-.407-.012H119.1L118.591,8h-1.054Zm6.35,3.577-1.461-3.577h1.087l1.021,2.689,2.075-2.689h1.228l-2.93,3.66L125.671,8h-1.037Z" transform="translate(877.295 78)" fill="#1c1c1c"/>
      </g>
    </g>
  </g>
</svg>
