<svg width="54" height="75" viewBox="0 0 54 75" fill="none" xmlns="http://www.w3.org/2000/svg">
<path d="M24.571 17.8841V17.9357C24.5338 19.3808 22.96 20.2075 21.9902 20.5598L20.1815 21.2233L19.9783 21.2923L19.7693 21.3664L17.6635 22.1306V19.0345L21.8871 17.5007L22.1558 17.3976C22.4908 17.2862 23.0945 17.1117 23.6067 17.1117H23.6726C23.8699 17.1145 24.053 17.1517 24.1961 17.2203C24.3162 17.2862 24.4166 17.3692 24.4822 17.4921C24.5453 17.5952 24.571 17.7267 24.571 17.8841Z" fill="white"/>
<path d="M40.4577 26.4514V26.5027C40.4205 27.945 38.8497 28.7693 37.8793 29.1241L36.0682 29.7848L35.865 29.8565L35.6561 29.9337L33.5499 30.7006V27.6018L37.7765 26.0622L38.0426 25.9621C38.3775 25.8505 38.984 25.6787 39.4962 25.6787H39.5621C39.7567 25.6842 39.9367 25.7159 40.0828 25.7873C40.203 25.8505 40.303 25.9335 40.3689 26.0564C40.429 26.1653 40.4577 26.2937 40.4577 26.4514Z" fill="white"/>
<path d="M41.2388 33.7824C41.2388 35.6652 38.9497 36.3345 38.2773 36.5807L33.5501 38.3034V34.8897L38.2859 33.1671L38.7492 32.9984C39.0271 32.9096 39.4018 32.8037 39.7767 32.772C39.8682 32.758 39.957 32.7552 40.0427 32.7552H40.0827C40.1485 32.7552 40.2028 32.7552 40.2687 32.758C40.8038 32.8037 41.2388 33.0612 41.2388 33.7824Z" fill="white"/>
<path d="M39.4876 40.853C39.1041 40.9902 38.6892 41.1388 38.2771 41.2993V41.3078L33.5502 43.0332L28.474 44.8788V24.7117L22.914 20.611L22.9 20.6168V24.4228C22.8856 24.4252 22.8743 24.4283 22.8627 24.431L22.3991 24.6027L17.6633 26.3285V29.7363L22.3933 28.0136C22.5135 27.9679 22.6937 27.9105 22.9 27.8333V32.5435C22.734 32.6063 22.5623 32.6691 22.3933 32.7323V32.7436L17.6633 34.4659L12.5844 36.3146V15.8268L7.72296 12.2216L12.5356 10.4815L13.52 10.1268L18.2243 8.41842L18.2588 8.40713C18.2588 8.40713 18.2588 8.40134 18.2701 8.40134L18.2731 8.39585C18.7881 8.20671 19.2743 8.08072 19.695 7.995C19.7066 7.995 19.7121 7.9834 19.7237 7.9834C19.7408 7.9834 19.7609 7.97761 19.7865 7.97212C20.3305 7.88335 20.9741 7.83484 21.641 7.93215H21.6495C22.1532 8.03221 22.9915 8.29823 23.7724 8.94495L24.3334 9.37447H24.3362L26.8688 11.3086L28.2278 12.3128L28.222 12.3159C29.4868 13.2744 29.5585 14.9769 29.5585 14.9769C29.5612 14.9885 29.5612 15.0028 29.5643 15.0141C29.5643 15.0257 29.567 15.04 29.567 15.0568C29.6158 15.3863 29.6101 15.7295 29.5612 16.0843C29.5612 16.0928 29.5585 16.1013 29.5585 16.1102C29.4755 16.9198 29.1921 18.0443 28.348 19.0745L28.3996 19.0574L28.8172 18.9058L29.0063 18.8341L29.4096 18.6913L34.1109 16.9827L34.1426 16.9714C34.1426 16.9714 34.1426 16.9628 34.1539 16.9628L34.1597 16.9601C34.6746 16.7713 35.1612 16.6422 35.5846 16.5562C35.5932 16.5562 35.6017 16.5476 35.6106 16.5476C35.6277 16.5476 35.6505 16.5394 35.6734 16.5364C36.2143 16.4476 36.861 16.4021 37.5276 16.4991H37.5334C38.037 16.5937 38.8811 16.8597 39.6593 17.5065L40.2258 17.9415L42.7526 19.8731L44.0287 20.82L44.1117 20.8829C45.3737 21.8417 45.4481 23.5411 45.4481 23.5411C45.7456 25.3724 44.3835 27.7534 43.259 29.0295C43.7541 29.0667 46.1949 29.4044 46.1949 32.4086C46.1949 35.7508 43.734 39.3106 39.4876 40.853ZM34.8177 -1.9112e-06H0.383232V34.7326C0.383232 44.6757 8.46975 52.7591 18.4104 52.7591H52.8476V18.0302C52.8476 8.08651 44.7584 -1.9112e-06 34.8177 -1.9112e-06Z" fill="white"/>
<path d="M29.5651 15.0141C29.5619 15.0011 29.5619 14.9846 29.5584 14.9713C29.5584 14.9713 29.5619 14.9846 29.5651 15.0141Z" fill="white"/>
<path d="M5.22841 62.3749H2.41607V60.9658H5.16801C5.81229 60.9658 6.12772 61.2004 6.12772 61.6635C6.12772 62.14 5.83243 62.3749 5.22841 62.3749ZM2.41607 57.7709H5.03378C5.62438 57.7709 5.91296 58.0058 5.91296 58.4756C5.91967 58.9252 5.61095 59.1531 4.9868 59.1531H2.41607V57.7709ZM7.01392 59.9722C7.87937 59.6568 8.3092 59.046 8.3092 58.1333C8.3092 56.5696 7.26224 55.7843 5.16801 55.7843H0V64.355H5.34921C7.51025 64.355 8.58437 63.5496 8.58437 61.9386C8.58437 60.9054 8.06089 60.2474 7.01392 59.9722Z" fill="white"/>
<path d="M16.0746 61.7642C15.6585 62.1937 15.1014 62.4084 14.4169 62.4084C13.7323 62.4084 13.182 62.1937 12.7656 61.7642C12.3498 61.3349 12.1414 60.7709 12.1414 60.0729C12.1414 59.3749 12.3498 58.8179 12.7656 58.3884C13.182 57.9585 13.7323 57.7438 14.4169 57.7438C15.1014 57.7438 15.6585 57.9585 16.0746 58.3884C16.4907 58.8179 16.6987 59.3749 16.6987 60.0729C16.6987 60.7709 16.4907 61.3349 16.0746 61.7642ZM17.8601 56.8515C17.0007 56.0391 15.8464 55.6364 14.4169 55.6364C12.9871 55.6364 11.8394 56.0391 10.9737 56.8515C10.1079 57.6565 9.67839 58.7307 9.67839 60.0729C9.67839 61.4152 10.1079 62.4893 10.9737 63.3014C11.8394 64.1067 12.9871 64.5094 14.4169 64.5094C15.8464 64.5094 17.0007 64.1067 17.8601 63.3014C18.7191 62.4893 19.1487 61.4152 19.1487 60.0729C19.1487 58.7307 18.7191 57.6565 17.8601 56.8515Z" fill="white"/>
<path d="M26.894 55.7842V60.5764L23.4441 55.7842H20.6989V64.3551H23.0079V58.8247L27.0014 64.3551H29.2027V55.7842H26.894Z" fill="white"/>
<path d="M31.1828 64.355H33.6059V55.784H31.1828V64.355Z" fill="white"/>
<path d="M34.9951 55.7842V57.8446H38.029V64.3551H40.445V57.8446H43.4856V55.7842H34.9951Z" fill="white"/>
<path d="M46.7138 60.9187L47.7339 58.1063L48.7409 60.9187H46.7138ZM49.0359 55.7842H46.546L42.8813 64.3552H45.3648L45.9957 62.7441H49.459L50.0899 64.3552H52.6939L49.0359 55.7842Z" fill="white"/>
<path d="M5.22841 72.8654H2.41607V71.4561H5.16801C5.81229 71.4561 6.12772 71.6843 6.12772 72.1473C6.12772 72.6238 5.83243 72.8654 5.22841 72.8654ZM2.41607 68.2545H5.03378C5.62438 68.2545 5.91296 68.4894 5.91296 68.9592C5.91967 69.4155 5.61095 69.6373 4.9868 69.6373H2.41607V68.2545ZM7.01392 70.4561C7.87937 70.1474 8.3092 69.5296 8.3092 68.6169C8.3092 67.0532 7.26224 66.2746 5.16801 66.2746H0V74.8456H5.34921C7.51025 74.8456 8.58437 74.0402 8.58437 72.4225C8.58437 71.389 8.06089 70.7377 7.01392 70.4561Z" fill="white"/>
<path d="M13.551 71.4024L14.5711 68.5901L15.5781 71.4024H13.551ZM15.8734 66.2744H13.3899L9.71855 74.8456H12.2088L12.8329 73.2346H16.2962L16.9338 74.8456H19.5314L15.8734 66.2744Z" fill="white"/>
<path d="M28.384 70.3085C27.8203 69.9122 26.8068 69.6508 25.3502 69.5163C24.5918 69.4424 24.1019 69.3619 23.867 69.2679C23.6254 69.1676 23.5113 69.0062 23.5113 68.7847C23.5113 68.3015 24.075 68.0599 25.1891 68.0599C26.2763 68.0599 27.2159 68.3283 28.0149 68.872L28.8068 67.1472C27.78 66.4626 26.518 66.127 25.0348 66.127C23.7865 66.127 22.8066 66.3686 22.1086 66.8519C21.4036 67.3284 21.0546 68.0062 21.0546 68.872C21.0546 69.7579 21.3365 70.4024 21.8939 70.7981C22.4573 71.1944 23.4643 71.4628 24.9274 71.6038C25.679 71.6709 26.1757 71.7511 26.4173 71.8521C26.6589 71.946 26.78 72.1004 26.78 72.3219C26.78 72.8118 26.1891 73.0534 25.0213 73.0534C23.6858 73.0534 22.5046 72.7111 21.4976 72.0199L20.6654 73.8185C21.813 74.6037 23.2898 75 25.0952 75C26.4579 75 27.4914 74.7648 28.1894 74.295C28.8806 73.8322 29.2296 73.1407 29.2296 72.2343C29.2296 71.342 28.9478 70.7045 28.384 70.3085Z" fill="white"/>
<path d="M31.1828 74.8457H33.6059V66.2745H31.1828V74.8457Z" fill="white"/>
<path d="M42.6733 72.2345C41.9015 72.671 41.1096 72.8922 40.2905 72.8922C39.4183 72.8922 38.7469 72.6911 38.2771 72.2814C37.8073 71.8724 37.5657 71.2949 37.5657 70.5502C37.5657 69.8117 37.8006 69.2409 38.2637 68.8385C38.7267 68.4289 39.3777 68.2275 40.217 68.2275C40.9753 68.2275 41.7203 68.4423 42.4585 68.8721L43.1028 66.9591C42.2303 66.402 41.1968 66.1269 39.9955 66.1269C38.472 66.1269 37.2771 66.5228 36.4046 67.3148C35.5389 68.107 35.1026 69.1942 35.1026 70.5701C35.1026 71.9596 35.5389 73.0468 36.4248 73.8254C37.3039 74.6039 38.5388 74.9998 40.1163 74.9998C41.425 74.9998 42.5122 74.7183 43.385 74.1475L42.6733 72.2345Z" fill="white"/>
<path d="M52.3852 70.3085C51.8215 69.9122 50.8148 69.6508 49.3514 69.5163C48.593 69.4424 48.1031 69.3619 47.8682 69.2679C47.6266 69.1676 47.5125 69.0062 47.5125 68.7847C47.5125 68.3015 48.0763 68.0599 49.1904 68.0599C50.2776 68.0599 51.2175 68.3283 52.0161 68.872L52.8081 67.1472C51.7812 66.4626 50.5192 66.127 49.036 66.127C47.7877 66.127 46.8078 66.3686 46.1099 66.8519C45.4049 67.3284 45.0559 68.0062 45.0559 68.872C45.0559 69.7579 45.3378 70.4024 45.8951 70.7981C46.4589 71.1944 47.4655 71.4628 48.9286 71.6038C49.6803 71.6709 50.1769 71.7511 50.4188 71.8521C50.6604 71.946 50.7812 72.1004 50.7812 72.3219C50.7812 72.8118 50.1974 73.0534 49.0226 73.0534C47.687 73.0534 46.5058 72.7111 45.4988 72.0199L44.6666 73.8185C45.8143 74.6037 47.2978 75 49.0964 75C50.4591 75 51.4926 74.7648 52.1906 74.295C52.8819 73.8322 53.2309 73.1407 53.2309 72.2343C53.2309 71.342 52.949 70.7045 52.3852 70.3085Z" fill="white"/>
</svg>
