<svg
  id="SvgjsSvg1001"
  width="256"
  height="256"
  xmlns="http://www.w3.org/2000/svg"
  version="1.1"
  xmlns:xlink="http://www.w3.org/1999/xlink"
  xmlns:svgjs="http://svgjs.com/svgjs"
>
  <defs id="SvgjsDefs1002"></defs>
  <g id="SvgjsG1008">
    <svg
      xmlns="http://www.w3.org/2000/svg"
      data-name="Layer 1"
      viewBox="0 0 200 200"
      width="256"
      height="256"
    >
      <path
        d="M75 71.09v-10c0-14.28 11.15-25.93 25-25.93s25 11.65 25 25.93v10h17.28A3.13 3.13 0 0 1 145.4 74l5.94 87.5a3.14 3.14 0 0 1-2.91 3.33H51.78a3.12 3.12 0 0 1-3.12-3.12v-.21L54.6 74a3.13 3.13 0 0 1 3.12-2.92Zm9.38 0h31.25v-10c0-9.19-7-16.56-15.63-16.56S84.38 51.9 84.38 61.09Zm-25.91 84.38h83.06l-5.08-75H63.56Z"
        fill="#000000"
        class="color000 svgShape"
      ></path>
    </svg>
  </g>
</svg>
