<svg xmlns="http://www.w3.org/2000/svg" width="20" height="24" viewBox="0 0 20 24">
  <path id="iconmonstr-paypal-1" d="M22,9.761a8.7,8.7,0,0,1-.169,1.627c-.847,4.419-3.746,5.946-7.449,5.946H13.81a.923.923,0,0,0-.908.789l-.8,5.09a.924.924,0,0,1-.908.787H8.455a.635.635,0,0,1-.628-.732l1.386-8.88.062-.056H11.43c5.235,0,8.509-2.618,9.473-7.568a4.074,4.074,0,0,1,1.1,3ZM7.784,14.013c.116-.826.459-1.177,1.385-1.179l2.26,0c4.574,0,7.2-2.09,8.023-6.39C20.252,2.308,17.35,0,13.421,0H6.077A1.055,1.055,0,0,0,5.039.9C2.735,15.736,2.069,19.508,2,20.659a.637.637,0,0,0,.635.672H6.625l1.159-7.318Z" transform="translate(-2)" fill="#fff"/>
</svg>
