<?xml version="1.0" encoding="UTF-8" standalone="no"?>
<!DOCTYPE svg PUBLIC "-//W3C//DTD SVG 1.1//EN" "http://www.w3.org/Graphics/SVG/1.1/DTD/svg11.dtd">
<svg xmlns="http://www.w3.org/2000/svg" xmlns:xlink="http://www.w3.org/1999/xlink" version="1.1" width="160pt" height="160pt" viewBox="0 0 360 360">
<g enable-background="new">
<g id="Layer-1" data-name="Layer 1">
<clipPath id="cp1">
<path transform="matrix(1,0,0,-1,0,360)" d="M 0 360 L 360 360 L 360 0 L 0 0 Z "/>
</clipPath>
<g clip-path="url(#cp1)">
<path transform="matrix(1,0,0,-1,173.298,115.6982)" d="M 0 0 L 0 -.169 C -.122 -4.906 -5.281 -7.616 -8.46 -8.771 L -14.389 -10.946 L -15.055 -11.172 L -15.74 -11.415 L -22.643 -13.92 L -22.643 -3.771 L -8.798 1.257 L -7.917 1.595 C -6.819 1.96 -4.84 2.532 -3.161 2.532 L -2.945 2.532 C -2.298 2.523 -1.698 2.401 -1.229 2.176 C -.835 1.96 -.506 1.688 -.291 1.285 C -.084 .947 0 .516 0 0 "/>
<path transform="matrix(1,0,0,-1,225.3756,143.7822)" d="M 0 0 L 0 -.168 C -.122 -4.896 -5.271 -7.598 -8.452 -8.761 L -14.389 -10.927 L -15.055 -11.162 L -15.74 -11.415 L -22.644 -13.929 L -22.644 -3.771 L -8.789 1.276 L -7.917 1.604 C -6.819 1.97 -4.831 2.533 -3.152 2.533 L -2.936 2.533 C -2.298 2.515 -1.708 2.411 -1.229 2.177 C -.835 1.97 -.507 1.698 -.291 1.295 C -.094 .938 0 .517 0 0 "/>
<path transform="matrix(1,0,0,-1,227.9362,167.8134)" d="M 0 0 C 0 -6.172 -7.504 -8.366 -9.708 -9.173 L -25.204 -14.82 L -25.204 -3.63 L -9.68 2.017 L -8.161 2.57 C -7.25 2.861 -6.022 3.208 -4.793 3.312 C -4.493 3.358 -4.202 3.367 -3.921 3.367 L -3.79 3.367 C -3.574 3.367 -3.396 3.367 -3.18 3.358 C -1.426 3.208 0 2.364 0 0 "/>
<path transform="matrix(1,0,0,-1,222.1954,190.9911)" d="M 0 0 C -1.257 -.45 -2.617 -.937 -3.968 -1.463 L -3.968 -1.491 L -19.463 -7.147 L -36.103 -13.197 L -36.103 52.912 L -54.329 66.354 L -54.375 66.335 L -54.375 53.859 C -54.422 53.851 -54.459 53.841 -54.497 53.832 L -56.017 53.269 L -71.541 47.612 L -71.541 36.441 L -56.036 42.088 C -55.642 42.238 -55.051 42.426 -54.375 42.679 L -54.375 27.239 C -54.919 27.033 -55.482 26.827 -56.036 26.62 L -56.036 26.583 L -71.541 20.937 L -88.19 14.877 L -88.19 82.037 L -104.126 93.855 L -88.35 99.559 L -85.123 100.722 L -69.702 106.322 L -69.589 106.359 C -69.589 106.359 -69.589 106.378 -69.552 106.378 L -69.542 106.396 C -67.854 107.016 -66.26 107.429 -64.881 107.71 C -64.843 107.71 -64.825 107.748 -64.787 107.748 C -64.731 107.748 -64.665 107.767 -64.581 107.785 C -62.798 108.076 -60.688 108.235 -58.502 107.916 L -58.474 107.916 C -56.823 107.588 -54.075 106.716 -51.515 104.596 L -49.676 103.188 L -49.667 103.188 L -41.365 96.848 L -36.91 93.556 L -36.929 93.546 C -32.783 90.404 -32.548 84.823 -32.548 84.823 C -32.539 84.785 -32.539 84.738 -32.529 84.701 C -32.529 84.663 -32.52 84.616 -32.52 84.561 C -32.36 83.481 -32.379 82.356 -32.539 81.193 C -32.539 81.165 -32.548 81.137 -32.548 81.108 C -32.82 78.454 -33.749 74.768 -36.516 71.391 L -36.347 71.447 L -34.978 71.944 L -34.358 72.179 L -33.036 72.647 L -17.625 78.248 L -17.521 78.285 C -17.521 78.285 -17.521 78.313 -17.484 78.313 L -17.465 78.322 C -15.777 78.941 -14.182 79.364 -12.794 79.646 C -12.766 79.646 -12.738 79.674 -12.709 79.674 C -12.653 79.674 -12.578 79.701 -12.503 79.711 C -10.73 80.002 -8.61 80.151 -6.425 79.833 L -6.406 79.833 C -4.755 79.523 -1.988 78.651 .563 76.531 L 2.42 75.105 L 10.703 68.773 L 14.886 65.669 L 15.158 65.463 C 19.295 62.32 19.539 56.749 19.539 56.749 C 20.514 50.746 16.049 42.941 12.363 38.758 C 13.986 38.636 21.987 37.529 21.987 27.681 C 21.987 16.725 13.92 5.056 0 0 M -15.308 133.918 L -128.186 133.918 L -128.186 20.063 C -128.186 -12.531 -101.678 -39.029 -69.092 -39.029 L 43.795 -39.029 L 43.795 74.814 C 43.795 107.41 17.278 133.918 -15.308 133.918 "/>
<path transform="matrix(1,0,0,-1,189.6662,106.28999)" d="M 0 0 C -.009 .037 -.009 .084 -.019 .122 C -.019 .122 -.009 .084 0 0 "/>
<path transform="matrix(1,0,0,-1,109.8922,261.54103)" d="M 0 0 L -9.219 0 L -9.219 4.619 L -.198 4.619 C 1.914 4.619 2.948 3.85 2.948 2.332 C 2.948 .77 1.98 0 0 0 M -9.219 15.092 L -.638 15.092 C 1.298 15.092 2.244 14.322 2.244 12.782 C 2.266 11.308 1.254 10.561 -.792 10.561 L -9.219 10.561 Z M 5.853 7.876 C 8.69 8.91 10.099 10.912 10.099 13.904 C 10.099 19.03 6.667 21.604 -.198 21.604 L -17.139 21.604 L -17.139 -6.491 L .396 -6.491 C 7.48 -6.491 11.001 -3.851 11.001 1.43 C 11.001 4.817 9.285 6.974 5.853 7.876 "/>
<path transform="matrix(1,0,0,-1,145.4464,259.539)" d="M 0 0 C -1.364 -1.408 -3.19 -2.112 -5.434 -2.112 C -7.678 -2.112 -9.482 -1.408 -10.847 0 C -12.21 1.407 -12.893 3.256 -12.893 5.544 C -12.893 7.832 -12.21 9.658 -10.847 11.066 C -9.482 12.475 -7.678 13.179 -5.434 13.179 C -3.19 13.179 -1.364 12.475 0 11.066 C 1.364 9.658 2.046 7.832 2.046 5.544 C 2.046 3.256 1.364 1.407 0 0 M 5.853 16.104 C 3.036 18.767 -.748 20.087 -5.434 20.087 C -10.121 20.087 -13.883 18.767 -16.721 16.104 C -19.559 13.465 -20.967 9.944 -20.967 5.544 C -20.967 1.144 -19.559 -2.377 -16.721 -5.039 C -13.883 -7.679 -10.121 -8.999 -5.434 -8.999 C -.748 -8.999 3.036 -7.679 5.853 -5.039 C 8.669 -2.377 10.077 1.144 10.077 5.544 C 10.077 9.944 8.669 13.465 5.853 16.104 "/>
<path transform="matrix(1,0,0,-1,180.9132,239.9365)" d="M 0 0 L 0 -15.709 L -11.309 0 L -20.308 0 L -20.308 -28.096 L -12.739 -28.096 L -12.739 -9.967 L .352 -28.096 L 7.568 -28.096 L 7.568 0 Z "/>
<path transform="matrix(1,0,0,-1,0,360)" d="M 194.972 91.968 L 202.915 91.968 L 202.915 120.064 L 194.972 120.064 Z "/>
<path transform="matrix(1,0,0,-1,207.4689,239.9365)" d="M 0 0 L 0 -6.754 L 9.945 -6.754 L 9.945 -28.096 L 17.865 -28.096 L 17.865 -6.754 L 27.832 -6.754 L 27.832 0 Z "/>
<path transform="matrix(1,0,0,-1,245.8834,256.76753)" d="M 0 0 L 3.344 9.219 L 6.645 0 Z M 7.612 16.831 L -.55 16.831 L -12.563 -11.265 L -4.422 -11.265 L -2.354 -5.984 L 8.999 -5.984 L 11.067 -11.265 L 19.603 -11.265 Z "/>
<path transform="matrix(1,0,0,-1,109.8922,295.9296)" d="M 0 0 L -9.219 0 L -9.219 4.62 L -.198 4.62 C 1.914 4.62 2.948 3.872 2.948 2.354 C 2.948 .792 1.98 0 0 0 M -9.219 15.115 L -.638 15.115 C 1.298 15.115 2.244 14.345 2.244 12.805 C 2.266 11.309 1.254 10.582 -.792 10.582 L -9.219 10.582 Z M 5.853 7.898 C 8.69 8.91 10.099 10.935 10.099 13.927 C 10.099 19.053 6.667 21.605 -.198 21.605 L -17.139 21.605 L -17.139 -6.491 L .396 -6.491 C 7.48 -6.491 11.001 -3.851 11.001 1.452 C 11.001 4.84 9.285 6.975 5.853 7.898 "/>
<path transform="matrix(1,0,0,-1,137.174,291.1337)" d="M 0 0 L 3.344 9.219 L 6.645 0 Z M 7.613 16.81 L -.528 16.81 L -12.563 -11.287 L -4.4 -11.287 L -2.354 -6.006 L 8.999 -6.006 L 11.089 -11.287 L 19.604 -11.287 Z "/>
<path transform="matrix(1,0,0,-1,185.7975,287.5478)" d="M 0 0 C -1.848 1.299 -5.17 2.156 -9.945 2.597 C -12.431 2.839 -14.037 3.103 -14.807 3.411 C -15.599 3.74 -15.973 4.269 -15.973 4.995 C -15.973 6.579 -14.125 7.371 -10.473 7.371 C -6.909 7.371 -3.829 6.491 -1.21 4.709 L 1.386 10.363 C -1.98 12.607 -6.117 13.707 -10.979 13.707 C -15.071 13.707 -18.283 12.915 -20.571 11.331 C -22.882 9.769 -24.026 7.547 -24.026 4.709 C -24.026 1.805 -23.102 -.308 -21.275 -1.605 C -19.428 -2.904 -16.127 -3.784 -11.331 -4.246 C -8.867 -4.466 -7.239 -4.729 -6.447 -5.06 C -5.655 -5.368 -5.258 -5.874 -5.258 -6.6 C -5.258 -8.206 -7.195 -8.998 -11.023 -8.998 C -15.401 -8.998 -19.273 -7.876 -22.574 -5.61 L -25.302 -11.506 C -21.54 -14.08 -16.699 -15.379 -10.781 -15.379 C -6.314 -15.379 -2.926 -14.608 -.638 -13.068 C 1.628 -11.551 2.772 -9.284 2.772 -6.313 C 2.772 -3.388 1.848 -1.298 0 0 "/>
<path transform="matrix(1,0,0,-1,0,360)" d="M 194.972 57.579 L 202.915 57.579 L 202.915 85.675998 L 194.972 85.675998 Z "/>
<path transform="matrix(1,0,0,-1,232.6383,293.8613)" d="M 0 0 C -2.53 -1.431 -5.126 -2.156 -7.811 -2.156 C -10.67 -2.156 -12.871 -1.497 -14.411 -.154 C -15.951 1.187 -16.743 3.08 -16.743 5.521 C -16.743 7.942 -15.973 9.813 -14.455 11.132 C -12.937 12.475 -10.803 13.135 -8.052 13.135 C -5.566 13.135 -3.124 12.431 -.704 11.022 L 1.408 17.293 C -1.452 19.119 -4.84 20.021 -8.778 20.021 C -13.772 20.021 -17.689 18.723 -20.549 16.127 C -23.387 13.53 -24.817 9.966 -24.817 5.456 C -24.817 .901 -23.387 -2.663 -20.483 -5.215 C -17.601 -7.767 -13.553 -9.065 -8.382 -9.065 C -4.092 -9.065 -.528 -8.142 2.333 -6.271 Z "/>
<path transform="matrix(1,0,0,-1,264.4747,287.5478)" d="M 0 0 C -1.848 1.299 -5.148 2.156 -9.945 2.597 C -12.431 2.839 -14.037 3.103 -14.807 3.411 C -15.599 3.74 -15.973 4.269 -15.973 4.995 C -15.973 6.579 -14.125 7.371 -10.473 7.371 C -6.909 7.371 -3.828 6.491 -1.21 4.709 L 1.386 10.363 C -1.98 12.607 -6.117 13.707 -10.979 13.707 C -15.071 13.707 -18.283 12.915 -20.571 11.331 C -22.882 9.769 -24.026 7.547 -24.026 4.709 C -24.026 1.805 -23.102 -.308 -21.275 -1.605 C -19.427 -2.904 -16.127 -3.784 -11.331 -4.246 C -8.867 -4.466 -7.239 -4.729 -6.446 -5.06 C -5.654 -5.368 -5.258 -5.874 -5.258 -6.6 C -5.258 -8.206 -7.172 -8.998 -11.023 -8.998 C -15.401 -8.998 -19.273 -7.876 -22.574 -5.61 L -25.302 -11.506 C -21.54 -14.08 -16.677 -15.379 -10.781 -15.379 C -6.314 -15.379 -2.926 -14.608 -.638 -13.068 C 1.628 -11.551 2.772 -9.284 2.772 -6.313 C 2.772 -3.388 1.848 -1.298 0 0 "/>
</g>
</g>
</g>
</svg>
